<svg xmlns="http://www.w3.org/2000/svg" viewBox="0 0 64 64">
  <defs>
    <linearGradient id="g" x1="0%" y1="0%" x2="100%" y2="100%">
      <stop offset="0%" stop-color="#3b82f6"/>
      <stop offset="100%" stop-color="#1d4ed8"/>
    </linearGradient>
  </defs>
  <rect width="64" height="64" rx="14" fill="url(#g)"/>
  <!-- Silueta simplificada de Colombia -->
  <path d="M20 10 L26 9 L32 11 L38 10 L44 14 L46 20 L44 26 L46 32 L44 38 L40 44 L36 50 L32 54 L28 50 L24 44 L20 38 L18 32 L16 26 L14 20 L16 14 Z"
        fill="rgba(255,255,255,0.25)" stroke="rgba(255,255,255,0.6)" stroke-width="1.5"/>
  <path d="M22 12 L28 11 L34 13 L40 12 L43 17 L44 23 L42 29 L43 35 L41 41 L37 47 L32 52 L27 47 L23 41 L20 35 L18 29 L18 23 L20 17 Z"
        fill="rgba(255,255,255,0.9)"/>
  <text x="32" y="36" text-anchor="middle" font-family="system-ui,sans-serif" font-size="10" font-weight="900" fill="#1d4ed8">CO</text>
</svg>
